<svg width="20" height="17" viewBox="0 0 20 17" fill="none" xmlns="http://www.w3.org/2000/svg">
<path d="M16 6.98V2.5C16 1.4 15.1 0.5 14 0.5H2C0.9 0.5 0 1.4 0 2.5V14.5C0 15.6 0.9 16.5 2 16.5H14C15.1 16.5 16 15.6 16 14.5V10.02L19.15 13.15C19.46 13.47 20 13.24 20 12.8V4.2C20 3.76 19.46 3.53 19.15 3.85L16 6.98ZM3.6 11.7L4.98 9.87C5.18 9.6 5.58 9.6 5.78 9.87L7 11.5L9.23 8.53C9.43 8.26 9.83 8.26 10.03 8.53L12.41 11.7C12.4657 11.7743 12.4996 11.8626 12.508 11.9551C12.5163 12.0476 12.4987 12.1406 12.4572 12.2236C12.4157 12.3067 12.3519 12.3765 12.2729 12.4253C12.1939 12.4741 12.1029 12.5 12.01 12.5H4C3.90714 12.5 3.81612 12.4741 3.73713 12.4253C3.65815 12.3765 3.59431 12.3067 3.55279 12.2236C3.51126 12.1406 3.49368 12.0476 3.50202 11.9551C3.51036 11.8626 3.54429 11.7743 3.6 11.7Z" fill="#191B08"/>
</svg>
