<svg width="13" height="19" viewBox="0 0 13 19" fill="none" xmlns="http://www.w3.org/2000/svg">
<path d="M2.87091 15.6764L2.87269 14.3327C3.48001 14.6059 4.14788 14.7926 4.87465 14.895L4.87472 15.679L2.87091 15.6764ZM2.87029 16.2218L4.87477 16.2245L4.87478 16.4137L2.87004 16.411L2.87029 16.2218ZM2.86931 16.9565L5.14717 16.9595L5.42029 16.9598L5.42026 16.6867L5.42022 16.2252L6.01835 16.226L6.01569 18.2269L2.86763 18.2227L2.86931 16.9565ZM11.5308 12.1172C11.1326 12.7046 10.6037 13.191 9.93853 13.5748L9.0048 11.0848L8.96203 10.9708C9.17037 10.5584 9.27046 10.0879 9.27046 9.56666C9.27046 8.98436 9.15507 8.47322 8.90924 8.04628C8.66472 7.61022 8.30995 7.27664 7.85263 7.04809C7.40547 6.81889 6.87525 6.71079 6.2727 6.71079C5.66919 6.71079 5.13421 6.81923 4.677 7.04741C4.21904 7.27597 3.86381 7.60977 3.61906 8.04624C3.37368 8.47237 3.25781 8.97747 3.25781 9.54955C3.25781 10.1226 3.37406 10.6324 3.6182 11.0684C3.73372 11.2748 3.87389 11.4582 4.03791 11.6184L2.64691 11.3942L2.33121 11.3433L2.33079 11.6631L2.32847 13.4083C1.79438 13.0536 1.35753 12.623 1.01463 12.1173C0.521554 11.3787 0.272727 10.5315 0.272727 9.56666C0.272727 8.57727 0.522423 7.7252 1.01414 6.99966C1.50913 6.26929 2.19996 5.69561 3.0966 5.28086C3.99068 4.86729 5.04699 4.65599 6.2727 4.65599C7.48659 4.65599 8.53728 4.86715 9.43167 5.28086L9.43281 5.28138C10.341 5.69639 11.0368 6.2701 11.5313 6.99966C12.023 7.7252 12.2727 8.57727 12.2727 9.56666C12.2727 10.5315 12.0239 11.3786 11.5308 12.1172ZM5.41987 12.3226C5.61413 12.3632 5.81812 12.3886 6.03139 12.3994L6.03917 12.4184L6.864 14.4261C6.67138 14.4374 6.47429 14.4431 6.2727 14.4431C5.9788 14.4431 5.69461 14.4313 5.42006 14.4078L5.41987 12.3226ZM4.87442 12.3057L4.8746 14.3438C4.22255 14.2457 3.62997 14.0754 3.09537 13.8348C3.01996 13.7999 2.946 13.7638 2.8735 13.7267L2.87581 11.9836L4.87442 12.3057ZM7.64706 14.8968C8.36943 14.7956 9.03508 14.6102 9.64243 14.3386L9.90317 15.0339L7.99617 15.7466L7.64706 14.8968ZM8.63247 11.6454L9.45047 13.8267C9.44484 13.8293 9.4392 13.8319 9.43356 13.8345C8.83682 14.1032 8.17051 14.2841 7.43264 14.3749L6.67355 12.5271L7.77462 12.3424L7.85091 12.3296L7.90911 12.2786L8.63247 11.6454ZM8.21678 16.2465L10.0947 15.5446L10.1612 15.722L8.28328 16.4238L8.21678 16.2465ZM8.91955 18.1205L8.47481 16.9346L10.6079 16.1373L10.8637 16.0417L10.7678 15.7861L10.6056 15.3537L11.044 15.1899L11.7467 17.0639L8.91955 18.1205ZM3.65051 3.44337C3.12615 3.44337 2.72924 3.31346 2.43502 3.07736C2.16542 2.8523 2.02086 2.53589 2.02086 2.09094C2.02086 1.67325 2.16236 1.36631 2.43501 1.13874C2.72924 0.902637 3.12614 0.772727 3.65051 0.772727C4.18932 0.772727 4.58388 0.904068 4.86433 1.13735C5.13808 1.36505 5.28016 1.6724 5.28016 2.09094C5.28016 2.53681 5.135 2.85361 4.86433 3.07875C4.58388 3.31203 4.18932 3.44337 3.65051 3.44337ZM8.8949 3.44337C8.35609 3.44337 7.96154 3.31203 7.68109 3.07875C7.41042 2.85361 7.26525 2.5368 7.26525 2.09094C7.26525 1.6724 7.40734 1.36505 7.68109 1.13735L7.50816 0.929451L7.68109 1.13735C7.96154 0.904067 8.35609 0.772727 8.8949 0.772727C9.42076 0.772727 9.81022 0.903311 10.0916 1.13735C10.3653 1.36505 10.5074 1.6724 10.5074 2.09094C10.5074 2.53681 10.3623 2.85361 10.0916 3.07875C9.81022 3.31279 9.42076 3.44337 8.8949 3.44337Z" fill="#191B08" stroke="#191B08" stroke-width="0.545454"/>
</svg>
