<svg width="11" height="11" viewBox="0 0 11 11" fill="none" xmlns="http://www.w3.org/2000/svg">
<path d="M5.5013 0.166504C6.20855 0.166504 6.88682 0.447455 7.38692 0.947552C7.88702 1.44765 8.16797 2.12593 8.16797 2.83317C8.16797 3.54041 7.88702 4.21869 7.38692 4.71879C6.88682 5.21889 6.20855 5.49984 5.5013 5.49984C4.79406 5.49984 4.11578 5.21889 3.61568 4.71879C3.11559 4.21869 2.83464 3.54041 2.83464 2.83317C2.83464 2.12593 3.11559 1.44765 3.61568 0.947552C4.11578 0.447455 4.79406 0.166504 5.5013 0.166504ZM5.5013 6.83317C8.44797 6.83317 10.8346 8.0265 10.8346 9.49984V10.8332H0.167969V9.49984C0.167969 8.0265 2.55464 6.83317 5.5013 6.83317Z" fill="#191B08"/>
</svg>
